<svg xmlns="http://www.w3.org/2000/svg" width="192" height="192" viewBox="0 0 192 192" fill="none">
  <rect width="192" height="192" rx="48" fill="#18181B"/>
  <path d="M43 112C43 88.804 61.804 70 85 70H107C130.196 70 149 88.804 149 112V117C149 123.627 143.627 129 137 129H55C48.373 129 43 123.627 43 117V112Z" fill="#F97316"/>
  <path d="M62 85C62 67.879 75.879 54 93 54H99C116.121 54 130 67.879 130 85V90H62V85Z" fill="#FDBA74"/>
  <circle cx="78" cy="107" r="6" fill="#18181B"/>
  <circle cx="113" cy="107" r="6" fill="#18181B"/>
  <path d="M79 137C79 129.82 84.82 124 92 124H100C107.18 124 113 129.82 113 137V140H79V137Z" fill="#FFF7ED"/>
</svg>
