<svg xmlns="http://www.w3.org/2000/svg" width="512" height="512" viewBox="0 0 512 512" fill="none">
  <rect width="512" height="512" rx="128" fill="#18181B"/>
  <path d="M114 299C114 237.144 164.144 187 226 187H286C347.856 187 398 237.144 398 299V313C398 330.673 383.673 345 366 345H146C128.327 345 114 330.673 114 313V299Z" fill="#F97316"/>
  <path d="M164 227C164 181.161 201.161 144 247 144H265C310.839 144 348 181.161 348 227V241H164V227Z" fill="#FDBA74"/>
  <circle cx="208" cy="286" r="18" fill="#18181B"/>
  <circle cx="304" cy="286" r="18" fill="#18181B"/>
  <path d="M210 364C210 344.67 225.67 329 245 329H267C286.33 329 302 344.67 302 364V374H210V364Z" fill="#FFF7ED"/>
</svg>
